# xmcd
#
# Track frame offsets: 
#        150
#        22600
#        41828
#        59729
#        79082
#        104732
#        125810
#        146742
#        165425
#        184376
#        198587
#        229009
#        247044
#        260460
#        280510
#        291998
#        307780
#        321631
#
# Disc length: 4492 seconds
#
# Revision: 0
# Processed by: cddbd v1.5.2PL0 Copyright (c) Steve Scherf et al.
# Submitted via: ExactAudioCopy v1.3
#
DISCID=13118a12
DTITLE=Various Artist - Dinner Music
DYEAR=1900
DGENRE=Blues
TTITLE0=Sade - Smooth Operator
TTITLE1=Al Jarreau - Mornin'
TTITLE2=Marvin Gaye - Sexual Healing
TTITLE3=Randy Crawford - You Might Need Somebody
TTITLE4=The Isley Brothers - Caravan Of Love
TTITLE5=Rufus and Chaka Khan - Ain't Nobody
TTITLE6=Earth, Wind and Fire - Fantasy
TTITLE7=The Love Unlimited Orchestra - Love's Theme
TTITLE8=Bill Withers - Lovely Day
TTITLE9=Dionne Warwick - What The World Needs Now
TTITLE10=Luther Vandross - Never Too Much
TTITLE11=Gregory Abbott - Shake You Down
TTITLE12=The Three Degrees - When Will I See You Again
TTITLE13=Deniece Williams - That's What Friends Are For
TTITLE14=Liza Minnelli - You Are The Sunshine Of My Life
TTITLE15=Aretha Franklin - What A Difference A Day Made
TTITLE16=Alison Moyet - That Ole Devil Called Love
TTITLE17=Harald Melvin and The Blue Notes featuring Teddy Pendergrass - 
TTITLE17=If You Don't Know Me By Now
EXTD=
EXTT0=
EXTT1=
EXTT2=
EXTT3=
EXTT4=
EXTT5=
EXTT6=
EXTT7=
EXTT8=
EXTT9=
EXTT10=
EXTT11=
EXTT12=
EXTT13=
EXTT14=
EXTT15=
EXTT16=
EXTT17=
PLAYORDER=
